<svg xmlns="http://www.w3.org/2000/svg" width="60.042" height="102.232" viewBox="0 0 60.042 102.232"><defs><style>.a,.b{fill:#fff;fill-rule:evenodd;}.b{opacity:0.5;}</style></defs><path class="a" d="M88.709,469.995c-7.02,0-14.049.014-21.075,0a6.187,6.187,0,0,1-5.341-2.929c-.288-.4-.574-.8-.845-1.219-1.212-1.9-1.014-3.963-.649-6.011a5.808,5.808,0,0,1,.676-1.388c1.192-2.514,2.341-5.044,3.553-7.522,1.048-2.124,2.183-4.213,3.231-6.337.773-1.588,1.442-3.215,2.21-4.805,1-2.088,2.079-4.154,3.1-6.243.261-.529.451-1.093.71-1.622.939-1.94,1.915-3.868,2.834-5.828a3.762,3.762,0,0,0,.327-1.507c.011-4.884-.027-9.753-.027-14.63a4.133,4.133,0,0,1,.8-3.005,3.553,3.553,0,0,1,1.059-.748,10.767,10.767,0,0,1,4.366-.658c3.537.038,7.065-.032,10.609.038a8.468,8.468,0,0,1,3.287.676,3.805,3.805,0,0,1,2.124,3.632c.038,4.767.1,9.536-.05,14.285a9.412,9.412,0,0,0,1.62,5.15c.484.849.87,1.768,1.3,2.649.306.631.638,1.257.944,1.877.807,1.627,1.629,3.249,2.395,4.877,1.007,2.093,1.953,4.217,2.949,6.324.759,1.591,1.591,3.134,2.368,4.731.333.651.622,1.322.942,1.98,1.153,2.386,2.417,4.731,3.427,7.18a11.362,11.362,0,0,1,.658,3.861c.077,2.253-1.126,4.078-2.534,5.65a5,5,0,0,1-3.888,1.577q-10.541-.025-21.082-.018Zm-.383-23.186v.014h13.22c1.106,0,1.449-.55.971-1.545-.689-1.417-1.433-2.816-2.122-4.231-.306-.651-.5-1.365-.788-2.028-1.142-2.552-2.311-5.1-3.46-7.628-.372-.822-.791-1.622-1.126-2.444a9.632,9.632,0,0,1-.888-2.929c-.09-4.711-.038-9.421,0-14.132.018-1.494-.279-1.832-1.8-1.8-2.64.014-5.283.018-7.919,0-1.417,0-1.615.153-1.615,1.532v12.391a8.522,8.522,0,0,1-.631,4.2c-.9,1.685-1.512,3.485-2.311,5.227-1.111,2.444-2.266,4.877-3.4,7.326-.71,1.521-1.451,3.062-2.127,4.6a1.585,1.585,0,0,0-.191,1.1c.115.225.631.378.962.378Q81.705,446.818,88.326,446.808Z" transform="translate(-58.766 -387.354)"/><path class="b" d="M74.8,727.292h31.607a5.784,5.784,0,1,1,.437,11.535c-21.287-.025-26.475,0-47.76,0a5.715,5.715,0,0,1-4.922-2.138c-1.787-2.4-2.028-4.749.072-7.416a5.067,5.067,0,0,1,4.28-2.012c10.787.027,5.483.02,16.284.02Z" transform="translate(-52.738 -636.595)"/><path class="b" d="M74.8,324.83h31.607a5.8,5.8,0,1,1,.437,11.566c-21.287-.025-26.475-.02-47.76,0a5.758,5.758,0,0,1-4.922-2.124c-1.787-2.393-2.028-4.767.072-7.434a5.074,5.074,0,0,1,4.28-2.028c10.787.038,5.483.018,16.284.018Z" transform="translate(-52.738 -324.81)"/></svg>