<svg xmlns="http://www.w3.org/2000/svg" width="258.811" height="64.898" viewBox="0 0 258.811 64.898"><defs><style>.a,.b{fill:#fff;}.a{fill-rule:evenodd;}</style></defs><g transform="translate(-774 -7372)"><g transform="translate(774 7372)"><path class="a" d="M78.415,446.457c-4.456,0-8.918.009-13.379,0a3.927,3.927,0,0,1-3.391-1.859c-.183-.255-.365-.506-.536-.774a5.072,5.072,0,0,1-.412-3.816,3.688,3.688,0,0,1,.429-.881c.757-1.6,1.486-3.2,2.255-4.775.665-1.349,1.386-2.674,2.051-4.023.491-1.008.915-2.041,1.4-3.05.632-1.326,1.32-2.637,1.969-3.963.166-.336.286-.694.451-1.03.6-1.231,1.216-2.456,1.8-3.7a2.388,2.388,0,0,0,.207-.957c.007-3.1-.017-6.191-.017-9.287a2.624,2.624,0,0,1,.511-1.908,2.256,2.256,0,0,1,.672-.475,6.835,6.835,0,0,1,2.772-.418c2.245.024,4.485-.02,6.735.024a5.375,5.375,0,0,1,2.087.429,2.416,2.416,0,0,1,1.349,2.305c.024,3.026.061,6.054-.031,9.069a5.975,5.975,0,0,0,1.028,3.269c.307.539.552,1.123.827,1.682.195.4.4.8.6,1.191.512,1.033,1.034,2.062,1.52,3.1.639,1.329,1.24,2.677,1.872,4.014.482,1.01,1.01,1.989,1.5,3,.212.413.395.839.6,1.257.732,1.515,1.535,3,2.175,4.558a7.213,7.213,0,0,1,.418,2.451,5.163,5.163,0,0,1-1.609,3.587,3.172,3.172,0,0,1-2.468,1q-6.692-.016-13.383-.011Zm-.243-14.719v.009h8.392c.7,0,.92-.349.616-.981-.438-.9-.91-1.788-1.347-2.686-.195-.413-.316-.867-.5-1.287-.725-1.62-1.467-3.238-2.2-4.842-.236-.522-.5-1.03-.715-1.552a6.115,6.115,0,0,1-.563-1.859c-.057-2.99-.024-5.981,0-8.971.011-.948-.177-1.163-1.144-1.144-1.676.009-3.354.011-5.027,0-.9,0-1.025.1-1.025.972v7.866a5.41,5.41,0,0,1-.4,2.666c-.572,1.07-.96,2.212-1.467,3.318-.705,1.552-1.439,3.1-2.155,4.651-.45.965-.921,1.944-1.35,2.917a1.006,1.006,0,0,0-.122.7c.073.143.4.24.611.24Q73.968,431.745,78.172,431.738Z" transform="translate(-59.406 -393.995)"/><path class="a" d="M66.742,727.28H86.807a3.672,3.672,0,1,1,.277,7.322c-13.513-.016-16.807,0-30.319,0a3.628,3.628,0,0,1-3.125-1.357,3.458,3.458,0,0,1,.046-4.708A3.217,3.217,0,0,1,56.4,727.26c6.847.017,3.481.013,10.337.013Z" transform="translate(-52.738 -669.704)"/><path class="a" d="M66.742,324.823H86.807a3.681,3.681,0,1,1,.277,7.342c-13.513-.016-16.807-.013-30.319,0a3.655,3.655,0,0,1-3.125-1.349,3.472,3.472,0,0,1,.046-4.719A3.221,3.221,0,0,1,56.4,324.81c6.847.024,3.481.011,10.337.011Z" transform="translate(-52.738 -324.81)"/><path class="b" d="M499.22,444.841a16.735,16.735,0,0,1-5.721,4.129,21.923,21.923,0,0,1-9.43,1.785,15.93,15.93,0,0,1-11.681-4.423,15.405,15.405,0,0,1-4.488-11.481v-8.1a15.626,15.626,0,0,1,4.382-11.454,15.16,15.16,0,0,1,11.281-4.449q7.485,0,11.215,3.462a13.967,13.967,0,0,1,4.236,9.456l-.053.16H490.51a8.032,8.032,0,0,0-1.984-4.608,6.328,6.328,0,0,0-4.675-1.545,6.074,6.074,0,0,0-5.061,2.49,10.272,10.272,0,0,0-1.918,6.436v8.152a10.414,10.414,0,0,0,1.892,6.514,6.3,6.3,0,0,0,5.3,2.463,14.924,14.924,0,0,0,3.89-.4,6.237,6.237,0,0,0,2.237-1.065v-6.128h-6.1V430.27H499.22Z" transform="translate(-408.526 -398.545)"/><path class="b" d="M752.08,434.327a16.209,16.209,0,0,1-4.542,11.814,15.849,15.849,0,0,1-11.87,4.648,15.8,15.8,0,0,1-16.538-16.462v-6.975a16.173,16.173,0,0,1,4.568-11.8,16.482,16.482,0,0,1,28.378,11.8ZM743.1,427.3a11.223,11.223,0,0,0-1.958-6.82,7.13,7.13,0,0,0-11.105-.014,11.345,11.345,0,0,0-1.931,6.833v7.032a11.31,11.31,0,0,0,1.958,6.872,6.54,6.54,0,0,0,5.608,2.663,6.4,6.4,0,0,0,5.487-2.663,11.351,11.351,0,0,0,1.945-6.872Z" transform="translate(-623.827 -398.579)"/><path class="b" d="M977.516,443.024l.266,1.412h.159l.267-1.3L985.9,414.76h9.439l-12.577,38.791h-9.725L960.52,414.76h9.4Z" transform="translate(-830.695 -401.896)"/><path class="b" d="M1242.565,450.834h19.18v2.717H1239.37V414.76h3.2Z" transform="translate(-1069.665 -401.896)"/><path class="b" d="M1439.336,442.756h-17.768l-4,10.82h-3.3L1429,414.79h3l14.632,38.787h-3.3Zm-16.7-2.85H1438.3l-7.723-20.99h-.159Z" transform="translate(-1219.552 -401.922)"/><path class="b" d="M1682.12,453.551V414.76h11.321q6.047,0,9.417,2.546t3.369,7.663a8.311,8.311,0,0,1-1.692,5.2,8.678,8.678,0,0,1-4.595,3.065,9.358,9.358,0,0,1,5.753,3.328,9.489,9.489,0,0,1,2.213,6.2q0,5.191-3.369,7.987t-9.01,2.8Zm3.169-21.391h8.924a10.166,10.166,0,0,0,6.514-1.851,6.567,6.567,0,0,0,2.3-5.447,6.49,6.49,0,0,0-2.45-5.528q-2.45-1.851-7.139-1.852h-8.152Zm0,2.717v15.956h10.23a9.984,9.984,0,0,0,6.739-2.111,7.388,7.388,0,0,0,2.451-5.906,7.744,7.744,0,0,0-2.224-5.709q-2.224-2.231-6.46-2.23Z" transform="translate(-1449.096 -401.896)"/></g></g></svg>