<svg version="1.1" id="Layer_2_1_" xmlns="http://www.w3.org/2000/svg" xmlns:xlink="http://www.w3.org/1999/xlink" x="0px" y="0px"
	 viewBox="0 0 100 100" style="enable-background:new 0 0 100 100;" xml:space="preserve">
<rect x="56.1" y="7.3"  class="st0" width="6.1" height="6.1" fill-opacity="0.2" fill="#05BFFF"/>
<rect x="50"   y="7.3"  class="st1" width="6.1" height="6.1" fill-opacity="0.6" fill="#05BFFF"/>
<rect x="62.2" y="13.4" class="st0" width="6.1" height="6.1" fill-opacity="0.2" fill="#05BFFF"/>
<rect x="56.1" y="13.4" class="st1" width="6.1" height="6.1" fill-opacity="0.6" fill="#05BFFF"/>
<rect x="68.3" y="19.5" class="st0" width="6.1" height="6.1" fill-opacity="0.2" fill="#05BFFF"/>
<rect x="62.2" y="19.5" class="st1" width="6.1" height="6.1" fill-opacity="0.6" fill="#05BFFF"/>
<rect x="74.4" y="25.6" class="st0" width="6.1" height="6.1" fill-opacity="0.2" fill="#05BFFF"/>
<rect x="74.4" y="31.7" class="st1" width="6.1" height="6.1" fill-opacity="0.6" fill="#05BFFF"/>
<rect x="68.3" y="25.6" class="st1" width="6.1" height="6.1" fill-opacity="0.6" fill="#05BFFF"/>
<path d="M74.4,37.8v-6.1h-6.1v6.1H31.7v-6.1h36.6v-6.1h-6.1v-6.1h-6.1v-6.1H50V7.3H19.5v85.5h61v-55H74.4z M68.3,74.4
	H31.7v-6.1h36.6L68.3,74.4z M68.3,62.2H31.7v-6.1h36.6L68.3,62.2z M68.3,50H31.7v-6.1h36.6L68.3,50z" fill="#05BFFF"/>
</svg>
