<?xml version="1.0" encoding="UTF-8"?><svg id="Layer_1" xmlns="http://www.w3.org/2000/svg" xmlns:xlink="http://www.w3.org/1999/xlink" viewBox="0 0 3186.92 260.78"><defs><style>.cls-1{fill:#204075;}.cls-2{opacity:.05;}.cls-2,.cls-3,.cls-4{fill:#fff;}.cls-3{opacity:.15;}.cls-4{opacity:.3;}.cls-5{opacity:.2;}.cls-6{opacity:.1;}.cls-7{fill:#ff6138;}.cls-8{clip-path:url(#clippath);}</style><clipPath id="clippath"><path class="cls-7" d="M215.21,129.75c0-22.4,3.68-43.93,10.34-64.1C180.71,56.7,141.21,33.06,112.16,0,83.26,32.41,44.22,55.57,0,64.46c7,20.63,10.85,42.7,10.85,65.7S7.03,175.08.08,195.65c44.39,9.03,83.53,32.42,112.4,65.13,29.12-33,68.7-56.5,113.58-65.35-6.99-20.62-10.84-42.7-10.84-65.68Z"/></clipPath></defs><path class="cls-7" d="M215.21,129.75c0-22.4,3.68-43.93,10.34-64.1C180.71,56.7,141.21,33.06,112.16,0,83.26,32.41,44.22,55.57,0,64.46c7,20.63,10.85,42.7,10.85,65.7S7.03,175.08.08,195.65c44.39,9.03,83.53,32.42,112.4,65.13,29.12-33,68.7-56.5,113.58-65.35-6.99-20.62-10.84-42.7-10.84-65.68Z"/><g class="cls-8"><polygon class="cls-6" points="112.16 0 112.16 130.39 225.55 65.65 112.16 0"/><polygon class="cls-5" points="225.55 65.65 112.16 130.39 228.05 196.58 225.55 65.65"/><polygon class="cls-6" points="228.05 196.58 112.16 130.39 112.47 260.78 228.05 196.58"/><polygon class="cls-2" points="112.77 260.78 112.16 130.39 .1 195.47 112.77 260.78"/><polygon class="cls-4" points=".1 195.47 112.16 130.39 0 64.45 .1 195.47"/><polygon class="cls-3" points="0 64.46 112.16 130.39 112.16 0 0 64.46"/></g><path class="cls-1" d="M451.77,72.81c9.94,0,18.13,1.22,24.58,3.65,6.45,2.43,11.26,6.11,14.43,11.02,3.17,4.92,4.76,11.13,4.76,18.64,0,5.5-1.03,10.21-3.09,14.12-2.06,3.91-4.73,7.16-8.01,9.75-3.28,2.59-6.82,4.68-10.63,6.26l32.51,49.8h-22.84l-27.12-44.73h-16.5v44.73h-20.3v-113.25h32.2ZM450.51,89.78h-10.63v34.89h11.26c8.35,0,14.41-1.51,18.16-4.52,3.75-3.01,5.63-7.48,5.63-13.4,0-4.12-.9-7.43-2.7-9.91-1.8-2.48-4.47-4.28-8.01-5.39-3.54-1.11-8.12-1.67-13.72-1.67Z"/><path class="cls-1" d="M590.4,186.05h-64.39v-113.25h64.39v16.97h-44.09v28.87h41.24v16.97h-41.24v33.31h44.09v17.13Z"/><path class="cls-1" d="M684.29,155.12c0,6.66-1.64,12.43-4.92,17.29-3.28,4.86-8.01,8.62-14.2,11.26-6.19,2.64-13.56,3.96-22.12,3.96-4.12,0-8.06-.24-11.82-.71-3.75-.48-7.3-1.19-10.63-2.14s-6.42-2.11-9.28-3.49v-19.03c4.76,2.12,9.99,4.04,15.7,5.79s11.52,2.62,17.45,2.62c4.54,0,8.27-.61,11.18-1.82,2.91-1.21,5.05-2.91,6.42-5.08,1.37-2.17,2.06-4.68,2.06-7.53,0-3.17-.9-5.87-2.7-8.09-1.8-2.22-4.44-4.28-7.93-6.19s-7.83-3.91-13.01-6.03c-3.49-1.48-6.9-3.15-10.23-5-3.33-1.85-6.32-4.1-8.96-6.74-2.64-2.64-4.76-5.76-6.34-9.36-1.59-3.59-2.38-7.82-2.38-12.69,0-6.45,1.56-12,4.68-16.65,3.12-4.65,7.51-8.19,13.17-10.63,5.66-2.43,12.24-3.65,19.75-3.65,6.03,0,11.68.63,16.97,1.9,5.29,1.27,10.52,3.07,15.7,5.39l-6.5,16.34c-4.65-2.01-9.15-3.59-13.48-4.76-4.34-1.16-8.78-1.74-13.32-1.74-3.6,0-6.66.56-9.2,1.67-2.54,1.11-4.44,2.67-5.71,4.68-1.27,2.01-1.9,4.34-1.9,6.98,0,3.07.79,5.66,2.38,7.77,1.59,2.12,4.04,4.1,7.38,5.95,3.33,1.85,7.64,3.94,12.93,6.26,6.13,2.64,11.31,5.39,15.54,8.25,4.23,2.85,7.51,6.29,9.83,10.31,2.32,4.02,3.49,8.99,3.49,14.91Z"/><path class="cls-1" d="M743.45,72.81c14.7,0,25.4,3.07,32.12,9.2,6.71,6.13,10.07,14.59,10.07,25.38,0,4.86-.74,9.49-2.22,13.88-1.48,4.39-3.97,8.33-7.46,11.82s-8.06,6.24-13.72,8.25c-5.66,2.01-12.66,3.01-21.01,3.01h-11.26v41.71h-20.3v-113.25h33.78ZM742.18,89.62h-12.21v37.91h9.2c5.5,0,10.18-.66,14.04-1.98,3.86-1.32,6.79-3.41,8.8-6.27,2.01-2.85,3.01-6.56,3.01-11.1,0-6.24-1.85-10.89-5.55-13.96-3.7-3.07-9.46-4.6-17.29-4.6Z"/><path class="cls-1" d="M913,129.27c0,8.78-1.08,16.73-3.25,23.87-2.17,7.14-5.45,13.3-9.83,18.48-4.39,5.18-9.94,9.15-16.65,11.9-6.72,2.75-14.57,4.12-23.55,4.12s-17-1.4-23.71-4.2c-6.72-2.8-12.24-6.77-16.57-11.9-4.34-5.13-7.59-11.29-9.75-18.48-2.17-7.19-3.25-15.17-3.25-23.95,0-11.74,1.93-21.94,5.79-30.61,3.86-8.67,9.73-15.41,17.61-20.22,7.88-4.81,17.9-7.22,30.06-7.22s21.83,2.41,29.66,7.22c7.82,4.81,13.69,11.58,17.61,20.3,3.91,8.72,5.87,18.95,5.87,30.69ZM827.83,129.27c0,8.56,1.13,15.92,3.41,22.05,2.27,6.13,5.76,10.84,10.47,14.12,4.7,3.28,10.71,4.92,18,4.92s13.59-1.64,18.24-4.92c4.65-3.28,8.09-7.98,10.31-14.12,2.22-6.13,3.33-13.48,3.33-22.05,0-12.79-2.49-22.84-7.45-30.14-4.97-7.3-13.06-10.94-24.27-10.94-7.4,0-13.46,1.64-18.16,4.92-4.71,3.28-8.2,7.98-10.47,14.12-2.28,6.13-3.41,13.48-3.41,22.05Z"/><path class="cls-1" d="M1037.34,186.05h-25.22l-53.61-88.82h-.63c.21,3.17.4,6.5.56,9.99.16,3.49.32,7.06.48,10.71s.29,7.32.4,11.02v57.1h-18.24v-113.25h25.06l53.45,88.19h.48c-.11-2.75-.21-5.87-.32-9.36-.11-3.49-.24-7.06-.4-10.71-.16-3.65-.29-7.16-.4-10.55v-57.57h18.4v113.25Z"/><path class="cls-1" d="M1136.63,155.12c0,6.66-1.64,12.43-4.92,17.29-3.28,4.86-8.01,8.62-14.2,11.26-6.19,2.64-13.56,3.96-22.12,3.96-4.12,0-8.06-.24-11.82-.71-3.75-.48-7.3-1.19-10.63-2.14s-6.42-2.11-9.28-3.49v-19.03c4.76,2.12,9.99,4.04,15.7,5.79s11.52,2.62,17.45,2.62c4.54,0,8.27-.61,11.18-1.82,2.91-1.21,5.05-2.91,6.42-5.08,1.37-2.17,2.06-4.68,2.06-7.53,0-3.17-.9-5.87-2.7-8.09-1.8-2.22-4.44-4.28-7.93-6.19s-7.83-3.91-13.01-6.03c-3.49-1.48-6.9-3.15-10.23-5-3.33-1.85-6.32-4.1-8.96-6.74-2.64-2.64-4.76-5.76-6.34-9.36-1.59-3.59-2.38-7.82-2.38-12.69,0-6.45,1.56-12,4.68-16.65,3.12-4.65,7.51-8.19,13.17-10.63,5.66-2.43,12.24-3.65,19.75-3.65,6.03,0,11.68.63,16.97,1.9,5.29,1.27,10.52,3.07,15.7,5.39l-6.5,16.34c-4.65-2.01-9.15-3.59-13.48-4.76-4.34-1.16-8.78-1.74-13.32-1.74-3.6,0-6.66.56-9.2,1.67-2.54,1.11-4.44,2.67-5.71,4.68-1.27,2.01-1.9,4.34-1.9,6.98,0,3.07.79,5.66,2.38,7.77,1.59,2.12,4.04,4.1,7.38,5.95,3.33,1.85,7.64,3.94,12.93,6.26,6.13,2.64,11.31,5.39,15.54,8.25,4.23,2.85,7.51,6.29,9.83,10.31,2.32,4.02,3.49,8.99,3.49,14.91Z"/><path class="cls-1" d="M1200.39,186.05h-47.58v-11.58l13.64-5.08v-79.78l-13.64-5.23v-11.58h47.58v11.58l-13.64,5.23v79.78l13.64,5.08v11.58Z"/><path class="cls-1" d="M1258.76,72.81c14.7,0,25.83,2.12,33.39,6.34,7.56,4.23,11.34,11.58,11.34,22.05,0,4.34-.74,8.25-2.22,11.74-1.48,3.49-3.62,6.34-6.42,8.56-2.8,2.22-6.26,3.7-10.39,4.44v.79c4.23.74,8.01,2.09,11.34,4.04,3.33,1.96,5.97,4.76,7.93,8.41,1.96,3.65,2.93,8.43,2.93,14.35,0,6.88-1.64,12.74-4.92,17.61-3.28,4.86-7.96,8.56-14.04,11.1-6.08,2.54-13.3,3.81-21.65,3.81h-41.4v-113.25h34.1ZM1261.45,118.96c8.04,0,13.56-1.27,16.58-3.81,3.01-2.54,4.52-6.29,4.52-11.26s-1.8-8.72-5.39-10.94c-3.6-2.22-9.36-3.33-17.29-3.33h-14.91v29.34h16.5ZM1244.96,135.3v33.78h18.4c8.25,0,13.98-1.59,17.21-4.76,3.22-3.17,4.84-7.4,4.84-12.69,0-3.38-.69-6.29-2.06-8.72-1.38-2.43-3.75-4.31-7.14-5.63-3.39-1.32-7.99-1.98-13.8-1.98h-17.45Z"/><path class="cls-1" d="M1333.93,186.05v-113.25h20.3v96.12h47.27v17.13h-67.57Z"/><path class="cls-1" d="M1489.53,186.05h-64.39v-113.25h64.39v16.97h-44.09v28.87h41.24v16.97h-41.24v33.31h44.09v17.13Z"/><path class="cls-1" d="M1655.43,128.32c0,12.69-2.41,23.32-7.22,31.88-4.81,8.56-11.74,15.02-20.78,19.35-9.04,4.34-19.96,6.5-32.75,6.5h-31.88v-113.25h35.21c11.74,0,21.89,2.12,30.45,6.34,8.56,4.23,15.2,10.44,19.9,18.64,4.7,8.2,7.06,18.37,7.06,30.53ZM1634.17,128.95c0-8.99-1.38-16.39-4.12-22.2-2.75-5.81-6.82-10.12-12.21-12.93-5.39-2.8-12-4.2-19.83-4.2h-14.91v79.46h12.21c13.11,0,22.86-3.36,29.26-10.07,6.4-6.71,9.6-16.73,9.6-30.06Z"/><path class="cls-1" d="M1750.28,186.05l-10.31-29.98h-42.67l-10.15,29.98h-21.57l41.55-113.72h23.16l41.55,113.72h-21.57ZM1724.9,109.44c-.42-1.48-1.06-3.49-1.9-6.03-.85-2.54-1.67-5.15-2.46-7.85s-1.4-4.94-1.82-6.74c-.53,2.12-1.19,4.55-1.98,7.3-.79,2.75-1.53,5.34-2.22,7.77-.69,2.43-1.24,4.28-1.67,5.55l-9.99,29.18h31.88l-9.83-29.18Z"/><path class="cls-1" d="M1820.22,186.05h-20.3v-96.12h-32.51v-17.13h85.33v17.13h-32.51v96.12Z"/><path class="cls-1" d="M1932.83,186.05l-10.31-29.98h-42.67l-10.15,29.98h-21.57l41.55-113.72h23.16l41.55,113.72h-21.57ZM1907.45,109.44c-.42-1.48-1.06-3.49-1.9-6.03-.85-2.54-1.67-5.15-2.46-7.85s-1.4-4.94-1.82-6.74c-.53,2.12-1.19,4.55-1.98,7.3-.79,2.75-1.53,5.34-2.22,7.77-.69,2.43-1.24,4.28-1.67,5.55l-9.99,29.18h31.88l-9.83-29.18Z"/><path class="cls-1" d="M2038.46,186.05h-19.99v-113.25h64.24v16.97h-44.25v33.31h41.24v16.97h-41.24v46Z"/><path class="cls-1" d="M2208.96,129.27c0,8.78-1.08,16.73-3.25,23.87-2.17,7.14-5.45,13.3-9.83,18.48-4.39,5.18-9.94,9.15-16.65,11.9-6.72,2.75-14.57,4.12-23.55,4.12s-17-1.4-23.71-4.2c-6.72-2.8-12.24-6.77-16.57-11.9-4.34-5.13-7.59-11.29-9.75-18.48-2.17-7.19-3.25-15.17-3.25-23.95,0-11.74,1.93-21.94,5.79-30.61,3.86-8.67,9.73-15.41,17.61-20.22,7.88-4.81,17.9-7.22,30.06-7.22s21.83,2.41,29.66,7.22c7.82,4.81,13.69,11.58,17.61,20.3,3.91,8.72,5.87,18.95,5.87,30.69ZM2123.79,129.27c0,8.56,1.13,15.92,3.41,22.05,2.27,6.13,5.76,10.84,10.47,14.12,4.7,3.28,10.71,4.92,18,4.92s13.59-1.64,18.24-4.92c4.65-3.28,8.09-7.98,10.31-14.12,2.22-6.13,3.33-13.48,3.33-22.05,0-12.79-2.49-22.84-7.45-30.14-4.97-7.3-13.06-10.94-24.27-10.94-7.4,0-13.46,1.64-18.16,4.92-4.71,3.28-8.2,7.98-10.47,14.12-2.28,6.13-3.41,13.48-3.41,22.05Z"/><path class="cls-1" d="M2269.23,72.81c9.94,0,18.13,1.22,24.58,3.65,6.45,2.43,11.26,6.11,14.43,11.02s4.76,11.13,4.76,18.64c0,5.5-1.03,10.21-3.09,14.12-2.06,3.91-4.73,7.16-8.01,9.75-3.28,2.59-6.82,4.68-10.63,6.26l32.51,49.8h-22.84l-27.12-44.73h-16.5v44.73h-20.3v-113.25h32.2ZM2267.96,89.78h-10.63v34.89h11.26c8.35,0,14.41-1.51,18.16-4.52,3.75-3.01,5.63-7.48,5.63-13.4,0-4.12-.9-7.43-2.7-9.91-1.8-2.48-4.47-4.28-8.01-5.39-3.54-1.11-8.12-1.67-13.72-1.67Z"/><path class="cls-1" d="M2436.88,88.35c-5.18,0-9.78.95-13.8,2.85-4.02,1.9-7.43,4.65-10.23,8.25-2.8,3.6-4.92,7.93-6.34,13.01-1.43,5.08-2.14,10.79-2.14,17.13,0,8.56,1.16,15.89,3.49,21.97,2.33,6.08,5.89,10.76,10.71,14.04,4.81,3.28,10.87,4.92,18.16,4.92,4.86,0,9.54-.5,14.04-1.51,4.49-1,9.22-2.35,14.2-4.04v17.29c-4.65,1.9-9.33,3.28-14.04,4.12-4.71.84-10.13,1.27-16.26,1.27-11.63,0-21.25-2.4-28.87-7.22-7.61-4.81-13.27-11.58-16.97-20.3-3.7-8.72-5.55-18.95-5.55-30.69,0-8.56,1.19-16.39,3.57-23.47,2.38-7.08,5.81-13.22,10.31-18.4,4.49-5.18,10.07-9.2,16.73-12.05,6.66-2.85,14.33-4.28,23-4.28,5.71,0,11.34.66,16.89,1.98,5.55,1.32,10.76,3.15,15.62,5.47l-6.98,16.65c-4.02-1.8-8.17-3.41-12.45-4.84-4.28-1.43-8.64-2.14-13.08-2.14Z"/><path class="cls-1" d="M2583.75,186.05h-20.3v-50.28h-49.8v50.28h-20.3v-113.25h20.3v45.68h49.8v-45.68h20.3v113.25Z"/><path class="cls-1" d="M2655.6,186.05h-47.58v-11.58l13.64-5.08v-79.78l-13.64-5.23v-11.58h47.58v11.58l-13.64,5.23v79.78l13.64,5.08v11.58Z"/><path class="cls-1" d="M2679.86,186.05v-113.25h20.3v96.12h47.27v17.13h-67.57Z"/><path class="cls-1" d="M2863.69,128.32c0,12.69-2.41,23.32-7.22,31.88-4.81,8.56-11.74,15.02-20.78,19.35-9.04,4.34-19.96,6.5-32.75,6.5h-31.88v-113.25h35.21c11.74,0,21.89,2.12,30.45,6.34,8.56,4.23,15.2,10.44,19.9,18.64,4.7,8.2,7.06,18.37,7.06,30.53ZM2842.43,128.95c0-8.99-1.38-16.39-4.12-22.2-2.75-5.81-6.82-10.12-12.21-12.93-5.39-2.8-12-4.2-19.83-4.2h-14.91v79.46h12.21c13.11,0,22.86-3.36,29.26-10.07,6.4-6.71,9.6-16.73,9.6-30.06Z"/><path class="cls-1" d="M2923.95,72.81c9.94,0,18.13,1.22,24.58,3.65,6.45,2.43,11.26,6.11,14.43,11.02s4.76,11.13,4.76,18.64c0,5.5-1.03,10.21-3.09,14.12-2.06,3.91-4.73,7.16-8.01,9.75-3.28,2.59-6.82,4.68-10.63,6.26l32.51,49.8h-22.84l-27.12-44.73h-16.5v44.73h-20.3v-113.25h32.2ZM2922.69,89.78h-10.63v34.89h11.26c8.35,0,14.41-1.51,18.16-4.52,3.75-3.01,5.63-7.48,5.63-13.4,0-4.12-.9-7.43-2.7-9.91-1.8-2.48-4.47-4.28-8.01-5.39-3.54-1.11-8.12-1.67-13.72-1.67Z"/><path class="cls-1" d="M3062.58,186.05h-64.39v-113.25h64.39v16.97h-44.09v28.87h41.24v16.97h-41.24v33.31h44.09v17.13Z"/><path class="cls-1" d="M3186.92,186.05h-25.22l-53.61-88.82h-.63c.21,3.17.4,6.5.56,9.99.16,3.49.32,7.06.48,10.71s.29,7.32.4,11.02v57.1h-18.24v-113.25h25.06l53.45,88.19h.48c-.11-2.75-.21-5.87-.32-9.36-.11-3.49-.24-7.06-.4-10.71-.16-3.65-.29-7.16-.4-10.55v-57.57h18.4v113.25Z"/></svg>