<?xml version="1.0" encoding="UTF-8"?>
<svg xmlns="http://www.w3.org/2000/svg" version="1.1" viewBox="0 0 130.9 31.5">
  <defs>
    <style>
      .cls-1 {
        fill: #fff;
      }
    </style>
  </defs>
  <!-- Generator: Adobe Illustrator 28.6.0, SVG Export Plug-In . SVG Version: 1.2.0 Build 709)  -->
  <g>
    <g id="Layer_1">
      <path class="cls-1" d="M112.7,0c-6.8,0-12.4,5.5-12.4,12.4s5.5,12.4,12.4,12.4,12.4-5.5,12.4-12.4S119.5,0,112.7,0M122.3,5.5c-.6.4-1.3.8-2,1.2-.4-.8-.9-1.6-1.5-2.3.5-.3,1-.7,1.4-1,.9.5,1.6,1.3,2.1,2.1M117.1,1.4c1,.4,1.9.9,2.8,1.6-.4.4-.9.7-1.4,1-.6-.7-1.3-1.3-2-1.9.2-.3.4-.5.6-.7M118.1,4.2c-.7.4-1.4.6-2.1.9-.3-.7-.6-1.4-1-2,.4-.2.8-.4,1.1-.7.7.5,1.4,1.1,2,1.8M116.6,1.2c-.2.2-.4.4-.5.6-.7-.4-1.3-.8-2.1-1.1.9,0,1.8.2,2.6.5M115.7,2.1c-.3.2-.6.4-.9.5-.4-.6-.8-1.1-1.2-1.7.7.3,1.4.7,2.1,1.2M112.9,1c.5.5.9,1.1,1.3,1.8-.4,0-.8.2-1.3.2V1ZM112.9,3.5c.5,0,1.1,0,1.6-.3.4.6.7,1.3,1,2-.8.2-1.7.3-2.6.4v-2.1ZM112.4,1v2c-.4,0-.8,0-1.3-.2.5-.6.9-1.2,1.3-1.8M110.7,2.6c-.3,0-.7-.3-.9-.5.7-.4,1.4-.8,2.1-1.1-.5.5-.9,1-1.2,1.6M111.4.6c-.7.3-1.4.7-2.1,1.1-.2-.2-.4-.4-.5-.6.8-.2,1.7-.4,2.6-.5M119.9,21.8c-1.6-.9-1.7-2.2-1.6-2.6,0-.5.4-.3.6-.3,1.1,0,2.2-.3,3.6-1.8,1.6-1.6,2.1-5.2-.4-7.5-2.6-2.5-5.4-2.1-7.2.2-.4.5-1.3.8-2,.8-1.2,0-.4.9-.4,1.1s-.2.3-.3.3c-.4-.1-.2.5-.2.6s-.2.3-.2.3c-.5,0-.4.4-.3.6,0,.1,0,.3-.2.4-.2.1-.3.5-.3.8,0,.5.5.9,1.3,1.5.8.6.9,1.2.9,1.6s0,1.1.2,1.5c.2.5.2,1.5-.9,1.5-1.4.1-3.8,1.1-4,1.2-.8.3-1.8.4-2.6.2-.4-.3-.8-.6-1.2-1-.2-.5,0-1.1.4-1.5.5.5,1.1.4,1.5.4s2.2-.3,2.5-.4.4-.1.5,0c.7.3,1.7.3,2.1-1,.4-1.4-.5-1-.7-.9,0,.1-.3,0-.2-.1.2-.3,0-.3-.2-.3-.4,0-.9.4-1,.5-.2.1-.3.1-.4.1-.5-.3-2,.1-2.5-.7,0-.2-.4-3.5-.6-4.1,0-.1,0-.3,0-.5.4-.6,1.4,0,2,0s.8-.3,1-.5.3-.1.4-.2c0-.1,0-.2,0-.3s0,0,.2-.1,0-.3,0-.4c.2-.3.6-.1.4-.7,0-.4,0-.8.3-1,.3-.4,1.6-2.2-.6-4.1-2.1-1.8-4.3-1.6-5.7,0-1.4,1.5-.7,3.7-.6,4.3s-.3,1.1-.8,1.3c-.4.2-1.3.8-1.9,1.3,0-4.8,3-9,7.4-10.7.2.2.4.5.6.7-.5.4-1.6,1.3-1.6,1.3,0,0,0,0,.3,0,0,0,.3,0,.3,0,0,0,.9-.8,1.4-1.1.3.3.7.5,1.1.7-.2.4-.8,1.4-.8,1.4,0,0,0,0,.2,0,0,0,.2,0,.2,0,0,0,.6-1.1.8-1.5.5.2,1,.3,1.5.3v2c-.3,0-1,0-1.3,0h-.2v.2c.2,0,.2.2.3.3h1.2v3.7h.5v-.9c.8,0,1.4-.1,2.1-.2h0l.7-.6h-.4c-.8.1-1.5.2-2.1.2h-.3v-2.3c.9,0,1.9,0,2.8-.4.2.6.7,2.1.7,2.1l.5-.2s-.5-1.5-.7-2.1c.8-.2,1.5-.6,2.2-.9.6.7,1.1,1.5,1.5,2.3-.4.2-1,.4-1,.4.5,0,.9.2.9.2,0,0,.2,0,.3,0,0,0,0,.3,0,.3l.7.3v-.2c0,0-.3-.5-.4-.6.7-.3,1.4-.7,2.1-1.2,1.3,1.9,1.9,4.2,1.9,6.5.2,3.8-1.7,7.2-4.5,9.4"/>
      <path class="cls-1" d="M99.2,3.3l-.2.2c-.7.6-2.4,2.3-2.1,4.2h0c0,0,0,.5,0,.5l.2-.2c1-.9,1.8-2.5,2.1-4.3v-.5c0,0,0,.1,0,.1Z"/>
      <path class="cls-1" d="M95.8,6.5v.2c-.2.3-.4,1-.5,1.8-.2,1.2,0,3,.9,4.3v.2c0,0,.2.2.2.2l.2-.8c.2-1.4,0-4.3-.6-5.6l-.2-.4h0Z"/>
      <path class="cls-1" d="M94.6,11.5v.2c0,1.2,0,4.3,2.5,6l.3.2v-.4c0-1.2-1.4-4.7-2.4-5.9l-.3-.4v.3Z"/>
      <path class="cls-1" d="M95,17v.2c.4,1.8,2,4.6,4.6,5.5h.4c0,.1,0-.3,0-.3-.5-1.3-3-4.4-4.6-5.4l-.3-.2v.2Z"/>
      <path class="cls-1" d="M100.3,6h-.3c-1.9,1.3-2.8,2.7-2.8,4.5v.4l.3-.2c1-.9,2.4-3.1,2.7-4.3v-.5c0,0,.1.1.1.1Z"/>
      <path class="cls-1" d="M99.1,9.8v.2c-.6.5-2.2,2.2-2.1,4.3,0,.3,0,.7.2,1v.3c0,0,.3-.3.3-.3.8-1.1,1.8-3.9,1.7-5.2v-.4h0Z"/>
      <path class="cls-1" d="M99.2,13.5v.2c-.9,1.2-1.3,2.4-1.3,3.6s.3,1.6.8,2.4l.2.3v-.3c.4-.7.7-2.8.7-4.5s0-1.1-.2-1.4v-.4c0,0-.2.1-.2.1Z"/>
      <path class="cls-1" d="M100.1,17.4v.2c-.3.8-.5,1.5-.4,2.3,0,1.6.8,2.9,2.2,3.8h.2c0,.1,0-.2,0-.2v-.3c0-1.3-1-4.7-1.8-5.7l-.2-.3v.2Z"/>
      <path class="cls-1" d="M97.4,22.6v.2c1.1,1.7,2.9,4,6.2,3.4h.3l-.2-.2c-.6-.9-4.6-3.2-6-3.4h-.4c0-.1,0,0,0,0Z"/>
      <path class="cls-1" d="M102.3,27h-.5c0,.1.5.3.5.3,2.1.9,4.7,1.1,6.3.6.6-.2.9-.5,1.3-.9,2.7.3,5.2,2.5,6.7,4.3h0c0,.1,0,.1,0,.1.2-.1.4-.3.5-.4h0c0-.1,0-.2,0-.2-1.5-2-3.9-3.2-4-3.3-2.2-1-6-1.8-11-.5"/>
      <path class="cls-1" d="M102.4,21.4v.2c.3,2,1.1,4.6,4.5,4.3h.2v-.2c-.3-.9-3.4-3.5-4.5-4.2l-.3-.2h.1Z"/>
      <path class="cls-1" d="M126,3.1v.5c.4,1.8,1.2,3.4,2.2,4.3l.2.2v-.4c.1,0,.1,0,.1,0,.3-1.9-1.4-3.6-2.1-4.2l-.2-.2h-.2Z"/>
      <path class="cls-1" d="M129.5,6.3l-.2.4c-.5,1.3-.7,4.2-.6,5.6l.2.8h.1c0-.1.1-.3.1-.3,1.1-1.3,1.1-3,.9-4.3-.1-.9-.3-1.5-.4-1.8v-.2c-.1,0-.1-.2-.1-.2Z"/>
      <path class="cls-1" d="M130.8,11.3l-.3.4c-1,1.3-2.4,4.7-2.4,5.9v.4l.3-.2c2.5-1.6,2.6-4.7,2.5-6v-.5Z"/>
      <path class="cls-1" d="M130.4,16.8l-.4.2c-1.6,1-4.1,4.1-4.6,5.4v.4c0,0,.3-.1.3-.1,2.6-.8,4.3-3.7,4.6-5.5v-.4Z"/>
      <path class="cls-1" d="M125.1,5.8v.5c.5,1.3,1.7,3.5,2.8,4.4l.3.2v-.4c.1-1.8-.8-3.2-2.7-4.4h-.2c0,0-.2-.3-.2-.3Z"/>
      <path class="cls-1" d="M126.2,9.7v.4c0,1.3,1,4.2,1.7,5.2l.2.3v-.3c.2-.4.3-.7.3-1,.1-2.1-1.5-3.8-2-4.3h0c0-.1,0-.3,0-.3Z"/>
      <path class="cls-1" d="M126.1,13.3v.4c-.2.3-.3.8-.3,1.4,0,1.7.2,3.8.6,4.5v.3c0,0,.3-.3.3-.3.5-.7.8-1.5.8-2.4s-.4-2.4-1.2-3.6v-.2c0,0-.2,0-.2,0Z"/>
      <path class="cls-1" d="M125.2,17.2l-.2.3c-.8,1-1.8,4.4-1.8,5.7v.6c0,0,.3-.1.3-.1,1.4-.9,2.1-2.2,2.2-3.8,0-.7,0-1.5-.3-2.3v-.2c0,0-.2-.2-.2-.2Z"/>
      <path class="cls-1" d="M128.1,22.4h-.4c-1.4.3-5.4,2.6-6,3.5l-.2.2h.3c3.3.6,5.1-1.7,6.1-3.4v-.2c.1,0,.2-.1.2-.1Z"/>
      <path class="cls-1" d="M112.2,27.5c0,0-2.5,1.3-4,3.3h0c0,.1,0,.2,0,.2,0,.1.4.3.5.4h.2c1.5-1.9,4-4.2,6.7-4.4.4.4.8.7,1.3.9,1.5.5,4.2.3,6.3-.6l.5-.2h-.5c-5.1-1.4-8.9-.6-11,.4"/>
      <path class="cls-1" d="M123,21.2l-.3.2c-1.1.7-4.1,3.3-4.4,4.2v.2c0,0,0,0,0,0,3.3.3,4.1-2.3,4.5-4.3v-.2h.1Z"/>
      <path class="cls-1" d="M38.6,1.2h4.2v3.8h-4.2V1.2ZM39,9.4h3.5v18.6h-3.5V9.4Z"/>
      <path class="cls-1" d="M12.5,9.4h3.5v18.6h-3.4v-2.7h-.1c-1.4,2.3-3.8,3.3-6.4,3.3-3.9,0-6.1-3-6.1-6.7v-12.5h3.5v11c0,3.2.7,5.6,4.1,5.6s3.4-.7,4.1-2.7c.7-1.7.7-3.9.7-4.4v-9.5h.1Z"/>
      <path class="cls-1" d="M23,12.1h0c1.3-2.3,3.8-3.3,5.7-3.3s7,.3,7,6.3v12.8h-3.5v-11.7c0-3.1-1.3-4.7-4.3-4.7,0,0-1.9-.1-3.4,1.4s-1.5,1.3-1.5,5v10.1h-3.5V9.4h3.5v2.7Z"/>
      <path class="cls-1" d="M57.2,15.3c-.2-2.3-1.3-3.9-3.8-3.9s-4.6,2.9-4.6,7.2,1.3,7.2,4.6,7.2,3.7-1.5,3.9-4.2h3.5c-.3,4.2-3.4,6.7-7.5,6.7-5.9,0-8.3-4.2-8.3-9.6s2.7-9.9,8.6-9.9,6.8,2.5,7,6.5c0,0-3.4,0-3.4,0Z"/>
      <path class="cls-1" d="M66,19.3c-.3,3.2,1.1,6.6,4.6,6.6s4.1-1.1,4.5-3.8h3.7c-.6,4.2-3.8,6.3-8.2,6.3s-8.3-4.2-8.3-9.6,2.7-9.9,8.6-9.9c5.5,0,8.1,3.6,8.1,8.7v1.7s-13,0-13,0ZM75.4,16.9c0-3.1-1.3-5.5-4.7-5.5s-4.6,2.5-4.6,5.5h9.3Z"/>
      <path class="cls-1" d="M83,27.8V11.8h-3.2v-2.4h3.2v-4c0-4,3.2-5.1,5.8-5.1s1.7.2,2.5.4v2.9c-.6,0-1.2,0-1.8,0-2,0-3.1.5-3,2.5v3.4h4.3v2.4h-4.3v16h-3.5Z"/>
    </g>
  </g>
</svg>