<svg xmlns="http://www.w3.org/2000/svg" width="408.082" height="86.999" viewBox="0 0 408.082 86.999"><defs><style>.a{fill:#fff;}</style></defs><path class="a" d="M198.414,56.653l-2.433,6.879h-.2a48.774,48.774,0,0,0-2.365-6.744L180.372,24.079H167.6V76.211h8.447V44.042c0-2.023,0-4.316-.068-7.149-.068-1.416-.2-2.5-.27-3.3h.2a31.451,31.451,0,0,0,1.216,4.451l15.677,38.037h5.947L214.294,37.7a40.788,40.788,0,0,0,1.014-4.114h.2c-.2,3.844-.338,7.284-.405,9.374V76.009h8.987V23.944h-12.3Zm34.193-18.007h8.785V76.009h-8.785Zm4.46-15.781a5.269,5.269,0,0,0-3.717,1.484,4.965,4.965,0,0,0,0,7.216,5.214,5.214,0,0,0,3.717,1.416,5.4,5.4,0,0,0,3.717-1.416,4.74,4.74,0,0,0,1.554-3.574,4.994,4.994,0,0,0-1.554-3.642,4.935,4.935,0,0,0-3.717-1.484m35.477,15.444a24.549,24.549,0,0,0-4.933-.54,21.234,21.234,0,0,0-10.677,2.63,17.63,17.63,0,0,0-7.028,7.216,22.9,22.9,0,0,0-2.433,10.791,19.984,19.984,0,0,0,2.365,9.644,16.181,16.181,0,0,0,6.622,6.677,19.525,19.525,0,0,0,9.663,2.36,21.272,21.272,0,0,0,10.609-2.5l.068-.067V66.432l-.338.27a15.111,15.111,0,0,1-4.257,2.226,13.046,13.046,0,0,1-4.19.809c-3.514,0-6.284-1.012-8.244-3.237-2.027-2.158-3.041-5.126-3.041-8.835,0-3.844,1.014-6.879,3.108-9.1a10.856,10.856,0,0,1,8.244-3.372,14.4,14.4,0,0,1,8.379,2.833l.338.27V39.725l-.068-.067a20.4,20.4,0,0,0-4.19-1.349m28.989-.27a9.281,9.281,0,0,0-5.947,2.091,12.582,12.582,0,0,0-3.379,5.058h-.068V38.646h-8.785V76.009h8.785V56.923c0-3.237.676-5.935,2.162-7.891A6.776,6.776,0,0,1,299.978,46a21.712,21.712,0,0,1,2.635.337,6.94,6.94,0,0,1,2.095.877l.338.27V38.714l-.2-.067a6.689,6.689,0,0,0-3.311-.607m23.921-.2c-6.149,0-11.082,1.821-14.528,5.4-3.514,3.574-5.2,8.5-5.2,14.7,0,5.8,1.757,10.521,5.136,13.96,3.379,3.372,7.974,5.126,13.718,5.126,6.014,0,10.812-1.821,14.258-5.463,3.514-3.642,5.2-8.5,5.2-14.5,0-5.935-1.622-10.656-4.933-14.1-3.176-3.439-7.839-5.126-13.65-5.126m7.028,28.73c-1.622,2.091-4.19,3.1-7.366,3.1a9.237,9.237,0,0,1-7.568-3.237c-1.825-2.091-2.7-5.126-2.7-8.97,0-3.979.946-7.014,2.7-9.172a9.3,9.3,0,0,1,7.5-3.237,8.994,8.994,0,0,1,7.3,3.1c1.757,2.091,2.7,5.126,2.7,9.1-.135,4.046-.878,7.216-2.568,9.307m31.152-12.409a21.059,21.059,0,0,1-5.338-2.765,3.825,3.825,0,0,1-1.014-2.833,3.131,3.131,0,0,1,1.419-2.7,6.52,6.52,0,0,1,3.852-1.012,17.524,17.524,0,0,1,4.527.674A11.663,11.663,0,0,1,371,47.346l.338.27V39.388l-.2-.067a24.418,24.418,0,0,0-3.987-1.146,27.141,27.141,0,0,0-4.325-.4c-4.19,0-7.636,1.012-10.339,3.237a9.963,9.963,0,0,0-3.987,8.228,10.689,10.689,0,0,0,.878,4.586,10.224,10.224,0,0,0,2.7,3.507,23.561,23.561,0,0,0,5.406,3.035c2.027.877,3.581,1.551,4.527,2.091a9.169,9.169,0,0,1,2.027,1.619,3.829,3.829,0,0,1,.541,2.091c0,2.5-1.892,3.709-5.744,3.709a15.193,15.193,0,0,1-4.865-.877,18.813,18.813,0,0,1-4.933-2.5l-.338-.27v8.565l.2.067a26.247,26.247,0,0,0,4.73,1.484,30.228,30.228,0,0,0,5.068.607c4.527,0,8.244-1.012,10.879-3.237a10.32,10.32,0,0,0,4.122-8.5,9.445,9.445,0,0,0-2.162-6.407,27.411,27.411,0,0,0-7.906-4.653M396.88,37.837c-6.149,0-11.082,1.821-14.528,5.4s-5.2,8.5-5.2,14.7c0,5.8,1.757,10.521,5.136,13.96,3.379,3.372,7.974,5.126,13.718,5.126,6.014,0,10.812-1.821,14.258-5.463,3.514-3.642,5.2-8.5,5.2-14.5,0-5.935-1.622-10.656-4.933-14.1-3.176-3.439-7.839-5.126-13.65-5.126m6.96,28.73c-1.622,2.091-4.19,3.1-7.366,3.1a9.149,9.149,0,0,1-7.568-3.237c-1.825-2.091-2.7-5.126-2.7-8.97,0-3.979.946-7.014,2.7-9.172a9.3,9.3,0,0,1,7.5-3.237,9.085,9.085,0,0,1,7.3,3.1c1.757,2.091,2.7,5.126,2.7,9.1,0,4.046-.878,7.216-2.568,9.307m58.587-20.7V38.646h-8.852V27.586l-.27.067-8.379,2.5-.2.067v8.43H431.478V33.925A7.386,7.386,0,0,1,432.965,29a5.252,5.252,0,0,1,4.122-1.619,9.876,9.876,0,0,1,3.919.877l.338.2V20.842l-.2-.067a16.929,16.929,0,0,0-11.961.944,11.709,11.709,0,0,0-4.8,4.788,13.778,13.778,0,0,0-1.757,6.946v5.193h-6.149V45.8h6.149V76.009h8.852V45.862h13.245V65.083c0,7.891,3.717,11.87,11.15,11.87a23.2,23.2,0,0,0,3.717-.4,12.175,12.175,0,0,0,2.771-.877l.068-.067V68.388l-.338.27a5.716,5.716,0,0,1-1.825.809,6.2,6.2,0,0,1-1.757.27,4.686,4.686,0,0,1-3.852-1.416c-.811-.944-1.216-2.5-1.216-4.788V45.862h8.987Z" transform="translate(-54.345 -6.544)"/><path class="a" d="M0,0H41.423V41.341H0Z"/><path class="a" d="M67.7,0h41.423V41.341H67.7Z" transform="translate(-21.952)"/><path class="a" d="M0,67.7H41.423v41.341H0Z" transform="translate(0 -22.042)"/><path class="a" d="M67.7,67.7h41.423v41.341H67.7Z" transform="translate(-21.952 -22.042)"/></svg>