<svg xmlns="http://www.w3.org/2000/svg" width="179.808" height="186.151" viewBox="0 0 179.808 186.151"><defs><style>.a{fill:#fff;}</style></defs><g transform="translate(-219.108 -90.449)"><g transform="translate(219.259 173.61)"><rect class="a" width="55.798" height="1.215" transform="translate(0.619)"/><g transform="translate(0 29.248)"><path class="a" d="M224.534,203.042h-5.28v-3.519h14.375v3.519h-5.278v13.831h-3.817Z" transform="translate(-219.254 -199.226)"/><path class="a" d="M239.362,199.4h3.52l7.436,17.473h-3.991l-1.587-3.891H237.4l-1.586,3.891h-3.891Zm4.015,10.211-2.3-5.626-2.305,5.626Z" transform="translate(-218.832 -199.23)"/><path class="a" d="M251.869,199.523h3.52l8.13,10.682V199.523h3.766v17.35h-3.247l-8.4-11.029v11.029h-3.768Z" transform="translate(-218.168 -199.226)"/><path class="a" d="M270.277,199.523h6.766c5.454,0,9.221,3.744,9.221,8.625v.051c0,4.882-3.767,8.675-9.221,8.675h-6.766Zm3.817,3.445v10.46h2.949a4.944,4.944,0,0,0,5.229-5.181V208.2a4.984,4.984,0,0,0-5.229-5.231Z" transform="translate(-217.555 -199.226)"/><path class="a" d="M287.822,208.257v-.049a9.224,9.224,0,0,1,18.439-.051v.051a9.224,9.224,0,0,1-18.439.049Zm14.45,0v-.049a5.271,5.271,0,0,0-5.255-5.453,5.187,5.187,0,0,0-5.2,5.4v.051a5.271,5.271,0,0,0,5.255,5.452A5.188,5.188,0,0,0,302.272,208.257Z" transform="translate(-216.971 -199.236)"/><path class="a" d="M308.486,199.523h3.519l8.129,10.682V199.523H323.9v17.35h-3.248l-8.4-11.029v11.029h-3.765Z" transform="translate(-216.283 -199.226)"/><path class="a" d="M219.3,241.353l2.256-2.7a7.965,7.965,0,0,0,5.18,2.107c1.561,0,2.5-.619,2.5-1.637v-.05c0-.967-.6-1.462-3.5-2.206-3.494-.893-5.749-1.859-5.749-5.3v-.049c0-3.148,2.527-5.231,6.073-5.231a10.044,10.044,0,0,1,6.444,2.205l-1.983,2.877a8.135,8.135,0,0,0-4.51-1.71c-1.462,0-2.231.669-2.231,1.512v.049c0,1.141.744,1.512,3.743,2.28,3.519.919,5.5,2.181,5.5,5.2v.051c0,3.445-2.628,5.378-6.37,5.378A11.049,11.049,0,0,1,219.3,241.353Z" transform="translate(-219.252 -198.335)"/><path class="a" d="M235.071,235.257v-.049a8.817,8.817,0,0,1,9.046-8.972,8.948,8.948,0,0,1,6.841,2.676l-2.429,2.8a6.4,6.4,0,0,0-4.436-1.957,5.14,5.14,0,0,0-5.032,5.4v.051a5.153,5.153,0,0,0,5.032,5.452,6.262,6.262,0,0,0,4.56-2.033l2.429,2.454a8.865,8.865,0,0,1-7.113,3.1A8.757,8.757,0,0,1,235.071,235.257Z" transform="translate(-218.727 -198.337)"/><path class="a" d="M253.07,226.523h3.817v6.865h7.039v-6.865h3.817v17.35h-3.817v-6.964h-7.039v6.964H253.07Z" transform="translate(-218.128 -198.327)"/><path class="a" d="M270.038,235.257v-.049a9.224,9.224,0,0,1,18.44-.051v.051a9.224,9.224,0,0,1-18.44.049Zm14.451,0v-.049a5.272,5.272,0,0,0-5.255-5.453,5.188,5.188,0,0,0-5.2,5.4v.051a5.271,5.271,0,0,0,5.255,5.452A5.188,5.188,0,0,0,284.489,235.257Z" transform="translate(-217.563 -198.337)"/><path class="a" d="M289.982,235.257v-.049a9.224,9.224,0,0,1,18.439-.051v.051a9.224,9.224,0,0,1-18.439.049Zm14.45,0v-.049a5.271,5.271,0,0,0-5.255-5.453,5.188,5.188,0,0,0-5.2,5.4v.051a5.271,5.271,0,0,0,5.255,5.452A5.188,5.188,0,0,0,304.432,235.257Z" transform="translate(-216.899 -198.337)"/><path class="a" d="M310.669,226.523h3.817V240.4h8.65v3.47H310.669Z" transform="translate(-216.21 -198.327)"/><path class="a" d="M331.07,235.257v-.049a9.224,9.224,0,0,1,18.439-.051v.051a9.224,9.224,0,0,1-18.439.049Zm14.45,0v-.049a5.271,5.271,0,0,0-5.255-5.453,5.187,5.187,0,0,0-5.2,5.4v.051a5.271,5.271,0,0,0,5.255,5.452A5.188,5.188,0,0,0,345.52,235.257Z" transform="translate(-215.531 -198.337)"/><path class="a" d="M351.757,226.523h13.211v3.469h-9.395v3.693h8.279v3.472h-8.279v6.716h-3.816Z" transform="translate(-214.842 -198.327)"/><path class="a" d="M220.453,253.523H233.54v3.4h-9.295v3.519h8.18v3.394h-8.18v3.643h9.42v3.4H220.453Z" transform="translate(-219.214 -197.428)"/><path class="a" d="M236.534,253.523h3.519l8.13,10.682V253.523h3.766v17.35H248.7l-8.4-11.029v11.029h-3.767Z" transform="translate(-218.679 -197.428)"/><path class="a" d="M254.75,262.257v-.049a8.9,8.9,0,0,1,9.1-8.972,9.524,9.524,0,0,1,6.817,2.379l-2.4,2.9a6.387,6.387,0,0,0-4.536-1.76,5.21,5.21,0,0,0-4.982,5.4v.051a5.2,5.2,0,0,0,5.255,5.5,6.086,6.086,0,0,0,3.593-1.042V264.19h-3.842v-3.3h7.535v7.534a11.258,11.258,0,0,1-7.411,2.751C258.468,271.179,254.75,267.387,254.75,262.257Z" transform="translate(-218.072 -197.438)"/><path class="a" d="M274.477,253.523h3.817v17.35h-3.817Z" transform="translate(-217.415 -197.428)"/><path class="a" d="M282.374,253.523h3.52l8.129,10.682V253.523h3.767v17.35h-3.247l-8.4-11.029v11.029h-3.766Z" transform="translate(-217.152 -197.428)"/><path class="a" d="M301.333,253.523h13.086v3.4h-9.294v3.519H313.3v3.394h-8.177v3.643h9.419v3.4H301.333Z" transform="translate(-216.521 -197.428)"/><path class="a" d="M317.413,253.523H330.5v3.4h-9.293v3.519h8.178v3.394h-8.178v3.643h9.42v3.4H317.413Z" transform="translate(-215.985 -197.428)"/><path class="a" d="M333.493,253.523h7.932a6.911,6.911,0,0,1,5.056,1.76,5.449,5.449,0,0,1,1.487,3.966v.051a5.391,5.391,0,0,1-3.717,5.378l4.238,6.2h-4.462l-3.718-5.552h-3v5.552h-3.817Zm7.684,8.428c1.859,0,2.924-.991,2.924-2.454v-.051c0-1.635-1.14-2.478-3-2.478H337.31v4.983Z" transform="translate(-215.45 -197.428)"/><path class="a" d="M351.013,253.523h3.816v17.35h-3.816Z" transform="translate(-214.866 -197.428)"/><path class="a" d="M358.909,253.523h3.52l8.129,10.682V253.523h3.767v17.35h-3.247l-8.4-11.029v11.029h-3.766Z" transform="translate(-214.603 -197.428)"/><path class="a" d="M377.124,262.257v-.049a8.9,8.9,0,0,1,9.1-8.972,9.517,9.517,0,0,1,6.816,2.379l-2.4,2.9a6.384,6.384,0,0,0-4.535-1.76,5.21,5.21,0,0,0-4.982,5.4v.051a5.2,5.2,0,0,0,5.254,5.5,6.087,6.087,0,0,0,3.594-1.042V264.19H386.12v-3.3h7.534v7.534a11.257,11.257,0,0,1-7.41,2.751C380.842,271.179,377.124,267.387,377.124,262.257Z" transform="translate(-213.997 -197.438)"/></g></g><g transform="translate(219.108 90.449)"><g transform="translate(70.264 12.266)"><path class="a" d="M287.108,102.32h6.426l14.848,19.518V102.32h6.89v31.691h-5.933L293.99,113.862v20.149h-6.882Z" transform="translate(-287.108 -102.32)"/><path class="a" d="M329.911,121.515,317.727,102.32h8.152l7.564,12.725,7.694-12.725h7.922l-12.177,19.061v12.63h-6.971Z" transform="translate(-286.088 -102.32)"/><path class="a" d="M350.94,120.433V102.32h6.971v17.932c0,5.158,2.579,7.834,6.837,7.834s6.838-2.587,6.838-7.605V102.32h6.971v17.885c0,9.6-5.385,14.3-13.9,14.3S350.94,129.757,350.94,120.433Z" transform="translate(-284.982 -102.32)"/></g><path class="a" d="M274.9,146.247H219.108v-55.8H274.9v55.8Zm-29.826-6.524a.594.594,0,0,0,1.1,0l1.952-15.456h-4.741l1.687,15.456Zm4.709-16.574V120.8H241.73v2.345Zm-2.321-3.483c10.2.368,10.93-8.936,10.971-12.419,0-.2-.1-.22-.148-.076a9.754,9.754,0,0,1-5.31,4.9,9.606,9.606,0,0,0-5.607,7.487C247.35,119.621,247.411,119.658,247.462,119.666Zm-1.124-.676c1.617-7.748,7.921-7.938,8.484-9.406.881-2.293-.73-6.362-1.141-6.843-.04-.052-.1-.024-.115.025a13.741,13.741,0,0,1-3.257,4.485c-1.427,1.154-6.9,5.211-4.1,11.746A.067.067,0,0,0,246.338,118.99Zm-1.114.313c-3.419-7.31,3.418-12.025,4.534-13.05.158-.142.116-.275.119-.438a17.172,17.172,0,0,0-1.745-6.553c-.062-.081-.115-.046-.137.036-.585,2.269-3.7,5.647-4.322,6.386-5.282,6.276-4.073,10.1,1.438,13.7C245.179,119.432,245.264,119.383,245.224,119.3Zm-1.531.25c-5.718-3.415-5.146-8.287-2.775-11.871a.527.527,0,0,0,.052-.343,13.717,13.717,0,0,0-1.415-3.593c-.1-.149-.189-.137-.193-.028-.033.97-1.147,3.414-2.84,6.224-1.806,3-1.808,9.494,7.15,9.748C243.753,119.69,243.777,119.606,243.692,119.553Z" transform="translate(-219.108 -90.449)"/></g></g></svg>